<?xml version="1.0" encoding="utf-8"?>
<!-- Generator: Adobe Illustrator 20.1.0, SVG Export Plug-In . SVG Version: 6.00 Build 0)  -->
<svg version="1.1" id="Capa_1" xmlns="http://www.w3.org/2000/svg" xmlns:xlink="http://www.w3.org/1999/xlink" x="0px" y="0px"
	 viewBox="0 0 512 512" style="enable-background:new 0 0 512 512;" xml:space="preserve">
<style type="text/css">
	.st0{fill:#E2E2E2;}
</style>
<g>
	<g>
		<path class="st0" d="M512,289.7v-67.5l-68.2-18.1c-4.3-15.4-10.4-30.2-18.4-44.2l34.9-60.6l-47.6-47.6l-60.6,34.9
			c-14-8-28.8-14.1-44.2-18.4L289.7,0h-67.5l-18.1,68.2c-15.4,4.3-30.2,10.4-44.2,18.4L99.4,51.7L51.7,99.4l34.9,60.6
			c-8,14-14.1,28.8-18.4,44.2L0,222.3v67.5l68.2,18.1c4.3,15.4,10.4,30.2,18.4,44.2l-34.9,60.6l47.6,47.6l60.6-34.9
			c14,8,28.8,14.1,44.2,18.4l18.1,68.2h67.5l18.1-68.2c15.4-4.3,30.2-10.4,44.2-18.4l60.6,34.9l47.6-47.6l-34.9-60.6
			c8-14,14.1-28.8,18.4-44.2L512,289.7z M410.1,275.5l-2.5,12.1c-3.9,18.9-11.4,36.8-22.1,53.2l-6.8,10.3l31.6,55l-4.3,4.3l-55-31.6
			l-10.3,6.8c-16.4,10.8-34.3,18.2-53.2,22.1l-12.1,2.5L259,472h-6l-16.5-61.9l-12.1-2.5c-18.9-3.9-36.8-11.4-53.2-22.1l-10.3-6.8
			l-55,31.6l-4.3-4.3l31.6-55l-6.8-10.3c-10.8-16.4-18.2-34.3-22.1-53.2l-2.5-12.1L40,259v-6l61.9-16.5l2.5-12.1
			c3.9-18.9,11.4-36.8,22.1-53.2l6.8-10.3l-31.6-55l4.3-4.3l55,31.6l10.3-6.8c16.4-10.8,34.3-18.2,53.2-22.1l12.1-2.5L253,40h6
			l16.5,61.9l12.1,2.5c18.9,3.9,36.8,11.4,53.2,22.1l10.3,6.8l55-31.6l4.3,4.3l-31.6,55l6.8,10.3c10.8,16.4,18.2,34.3,22.1,53.2
			l2.5,12.1L472,253v6L410.1,275.5z"/>
	</g>
</g>
<g>
	<g>
		<path class="st0" d="M256,140c-64,0-116,52-116,116s52,116,116,116s116-52,116-116S320,140,256,140z M256,332
			c-41.9,0-76-34.1-76-76s34.1-76,76-76s76,34.1,76,76S297.9,332,256,332z"/>
	</g>
</g>
</svg>
